<?xml version="1.0" encoding="utf-8"?>
<!-- Generator: Adobe Illustrator 21.1.0, SVG Export Plug-In . SVG Version: 6.00 Build 0)  -->
<svg version="1.1" id="Layer_1" xmlns="http://www.w3.org/2000/svg" xmlns:xlink="http://www.w3.org/1999/xlink" x="0px" y="0px"
	 viewBox="0 0 488.7 406.5" style="enable-background:new 0 0 488.7 406.5;" xml:space="preserve">
<style type="text/css">
	.st0{fill:#FFFFFF;}
</style>
<g>
	<path class="st0" d="M261.8,195.4h-34.8c-4.9,0-8.8-3.9-8.8-8.8v-16c0-4.9,3.9-8.8,8.8-8.8h34.8c4.9,0,8.8,3.9,8.8,8.8v16
		C270.6,191.4,266.6,195.4,261.8,195.4z"/>
	<path class="st0" d="M261.6,258.7h-34.8c-4.9,0-8.8-3.9-8.8-8.8v-16c0-4.9,3.9-8.8,8.8-8.8h34.8c4.9,0,8.8,3.9,8.8,8.8v16
		C270.4,254.8,266.4,258.7,261.6,258.7z"/>
	<path class="st0" d="M482.5,113.2h-49.2c-0.5,0-1,0.2-1.3,0.6L245.1,350.4c-0.4,0.5-1.2,0.5-1.6,0L56.7,113.9
		c-0.3-0.4-0.8-0.6-1.3-0.6H6.2c-0.4,0-0.6,0.5-0.4,0.8L225,393.8c0.4,0.5,1.1,0.8,1.7,0.8h35.2c0.7,0,1.3-0.3,1.7-0.8L482.9,114
		C483.1,113.7,482.9,113.2,482.5,113.2z"/>
	<path class="st0" d="M355,13.3c0-1-0.8-1.8-1.8-1.8l-23.9,0c-1.7,0-3.4,0.3-5,0.8c-11.1,3.7-56.5,18.7-73.2,24.3
		c-4,1.3-8.4,1.3-12.4,0C222,31.1,176.6,16,165.5,12.3c-1.6-0.5-3.3-0.8-5-0.8l-23.9,0c-1,0-1.8,0.8-1.8,1.8l0,119.7
		c0,1,0.8,1.8,1.8,1.8h23.9c1.7,0,3.4-0.3,5-0.8c11.1-3.7,56.5-18.7,73.2-24.3c4-1.3,8.4-1.3,12.4,0c16.7,5.6,62.1,20.6,73.2,24.3
		c1.6,0.5,3.3,0.8,5,0.8h23.9c1,0,1.8-0.8,1.8-1.8L355,13.3z M221.9,73.1c0,2-1.2,3.7-3.1,4.3l-39.1,13.4c-3.8,1.3-7.8-1.5-7.8-5.5
		V60.9c0-4,4-6.8,7.8-5.5l39.1,13.4C220.6,69.4,221.9,71.2,221.9,73.1L221.9,73.1z M317.9,85.4c0,4-4,6.8-7.8,5.5l-39.1-13.4
		c-1.9-0.6-3.1-2.4-3.1-4.3v0c0-2,1.2-3.7,3.1-4.3l39.1-13.4c3.8-1.3,7.8,1.5,7.8,5.5V85.4z"/>
</g>
</svg>
