<svg id="Layer_1" data-name="Layer 1" xmlns="http://www.w3.org/2000/svg" viewBox="0 0 625.44 844.03"><defs><style>.cls-1,.cls-2{fill:#231f20;stroke:#231f20;stroke-miterlimit:10;}.cls-1{stroke-width:1.01px;}</style></defs><title>Artboard 1</title><g id="type"><path class="cls-1" d="M0,558.91q7.18-1.37,15.81-2.14T33,556a111.79,111.79,0,0,1,17.86,1.45A44.5,44.5,0,0,1,67,563.27a33.77,33.77,0,0,1,11.71,12.14q4.53,7.78,4.53,20.25,0,11.28-3.93,19.06a36.38,36.38,0,0,1-10.43,12.73,42,42,0,0,1-14.79,7.18,66,66,0,0,1-17.18,2.22H34.19c-1.26,0-2.56,0-3.93-.09s-2.71-.14-4-.26a28.19,28.19,0,0,1-2.82-.34v41.19H0Zm34.87,17.26q-3.42,0-6.5.26t-5,.6v38.8a18,18,0,0,0,2.05.34q1.37.17,2.91.26c1,.06,2,.09,3,.09H33.5a49.09,49.09,0,0,0,9.15-.85,22.59,22.59,0,0,0,8.12-3.16,16.49,16.49,0,0,0,5.73-6.41q2.14-4.1,2.14-10.77A19,19,0,0,0,56.58,586a16.8,16.8,0,0,0-5.38-5.9A21,21,0,0,0,43.59,577,44.4,44.4,0,0,0,34.87,576.18Z"/><path class="cls-1" d="M160.84,650.87H124.09L115,677.36H91.61l43.07-120.5H152L195,677.36H170.41Zm-30.77-18.8h25.64l-8.89-26.66-3.59-18.8h-.85l-3.59,19Z"/><path class="cls-1" d="M217.55,558.91q3.93-.68,8.46-1.28t9.06-.94q4.53-.34,8.8-.51t7.86-.17a88.43,88.43,0,0,1,16.49,1.54,45.09,45.09,0,0,1,14.53,5.3A28.36,28.36,0,0,1,293,573.18q3.85,6.58,3.85,16.49,0,14.7-6.84,23.93a35.23,35.23,0,0,1-18.29,12.82l8.38,5.3,27.35,45.64h-27l-27.18-46.83L241,628.31v49.06H217.55Zm35.89,17.95q-3.59,0-7.09.17a26.61,26.61,0,0,0-5.38.68v34.7h9.91q9.74,0,15.56-4.44t5.81-14.7q0-7.69-4.79-12.05T253.45,576.86Z"/><path class="cls-1" d="M415.41,578.57H380.54v98.8H357.12v-98.8h-35V557.72h93.33Z"/><path class="cls-1" d="M519.94,677.36H444.22V557.72h23.42v98.8h52.3Z"/><path class="cls-1" d="M562.88,632.92l-39.31-75.21h27.86l21.88,45,2.39,12.65h.86l2.56-13,21.19-44.61h25.13l-39.14,75v44.61H562.88Z"/><path class="cls-2" d="M0,729.69q6.93-1.32,15.26-2.06t16.58-.74a107.9,107.9,0,0,1,17.24,1.4,43,43,0,0,1,15.59,5.61A32.59,32.59,0,0,1,76,745.61q4.37,7.51,4.37,19.55,0,10.89-3.79,18.4a35.12,35.12,0,0,1-10.07,12.29,40.54,40.54,0,0,1-14.27,6.93,63.76,63.76,0,0,1-16.58,2.14H33q-1.82,0-3.79-.08t-3.88-.25a27.37,27.37,0,0,1-2.72-.33V844H0Zm33.66,16.67q-3.3,0-6.27.25t-4.79.58v37.46a17.28,17.28,0,0,0,2,.33q1.32.17,2.8.25c1,.06,2,.08,2.89.08h2.06a47.37,47.37,0,0,0,8.83-.83A21.82,21.82,0,0,0,49,781.42a15.94,15.94,0,0,0,5.53-6.19,22.55,22.55,0,0,0,2.06-10.4,18.29,18.29,0,0,0-2-9,16.21,16.21,0,0,0-5.2-5.69,20.3,20.3,0,0,0-7.34-3A42.9,42.9,0,0,0,33.66,746.36Z"/><path class="cls-2" d="M105.93,729.69q3.79-.66,8.17-1.24t8.75-.91q4.37-.33,8.5-.5t7.59-.17a85.34,85.34,0,0,1,15.92,1.49,43.52,43.52,0,0,1,14,5.12,27.37,27.37,0,0,1,9.9,10q3.71,6.35,3.71,15.92,0,14.19-6.6,23.1a34,34,0,0,1-17.66,12.38l8.08,5.12L192.72,844H166.65l-26.24-45.21-11.88-2.15V844h-22.6ZM140.58,747q-3.46,0-6.85.16a25.74,25.74,0,0,0-5.2.66v33.5h9.57q9.4,0,15-4.29t5.61-14.19q0-7.43-4.62-11.63T140.58,747Z"/><path class="cls-2" d="M207.73,786.28q0-28.87,12.71-44.47t36.3-15.59q12.38,0,21.61,4.29a40.75,40.75,0,0,1,15.35,12.21,53.39,53.39,0,0,1,9.07,19,94.71,94.71,0,0,1,3,24.58q0,28.88-12.79,44.47t-36.22,15.59q-12.54,0-21.78-4.29a40,40,0,0,1-15.26-12.21,54.15,54.15,0,0,1-9-19A94.68,94.68,0,0,1,207.73,786.28Zm23.76,0A81.29,81.29,0,0,0,233,802.37,41.5,41.5,0,0,0,237.51,815a23.05,23.05,0,0,0,7.84,8.25,21.15,21.15,0,0,0,11.39,3q12,0,18.64-9.4t6.6-30.53a82.79,82.79,0,0,0-1.4-15.67,43.76,43.76,0,0,0-4.37-12.71,22.8,22.8,0,0,0-7.75-8.5,21.36,21.36,0,0,0-11.71-3.05q-12,0-18.65,9.65T231.49,786.28Z"/><path class="cls-2" d="M332.64,729.69q6.93-1.32,15.26-2.06t16.58-.74a107.9,107.9,0,0,1,17.24,1.4,43,43,0,0,1,15.59,5.61,32.59,32.59,0,0,1,11.3,11.71q4.37,7.51,4.37,19.55,0,10.89-3.79,18.4a35.12,35.12,0,0,1-10.07,12.29,40.54,40.54,0,0,1-14.27,6.93,63.76,63.76,0,0,1-16.58,2.14h-2.64q-1.82,0-3.79-.08T358,804.6a27.37,27.37,0,0,1-2.72-.33V844h-22.6Zm33.66,16.67q-3.3,0-6.27.25t-4.79.58v37.46a17.28,17.28,0,0,0,2,.33q1.32.17,2.8.25c1,.06,2,.08,2.89.08H365a47.37,47.37,0,0,0,8.83-.83,21.82,21.82,0,0,0,7.84-3.05,15.94,15.94,0,0,0,5.53-6.19,22.55,22.55,0,0,0,2.06-10.4,18.29,18.29,0,0,0-2-9,16.21,16.21,0,0,0-5.2-5.69,20.3,20.3,0,0,0-7.34-3A42.9,42.9,0,0,0,366.3,746.36Z"/><path class="cls-2" d="M438.57,728.53H507v20.13H461.17v26.9h41.75v20.13H461.17v28.21h46.7V844h-69.3Z"/><path class="cls-2" d="M537.07,729.69q3.79-.66,8.17-1.24t8.75-.91q4.37-.33,8.5-.5t7.59-.17A85.34,85.34,0,0,1,586,728.37a43.52,43.52,0,0,1,14,5.12,27.37,27.37,0,0,1,9.9,10q3.71,6.35,3.71,15.92,0,14.19-6.6,23.1a34,34,0,0,1-17.66,12.38l8.08,5.12L623.86,844H597.79l-26.24-45.21-11.88-2.15V844h-22.6ZM571.72,747q-3.46,0-6.85.16a25.74,25.74,0,0,0-5.2.66v33.5h9.57q9.4,0,15-4.29t5.61-14.19q0-7.43-4.62-11.63T571.72,747Z"/></g><g id="Icon"><rect x="273.87" y="175.75" width="61.39" height="39.35" rx="8.82" ry="8.82"/><rect x="273.63" y="249.87" width="61.39" height="39.35" rx="8.82" ry="8.82"/><path d="M583.14,119H525.6a2,2,0,0,0-1.52.72L305.48,396.46a1.18,1.18,0,0,1-1.83,0L85.05,119.73a2,2,0,0,0-1.52-.72H26a.57.57,0,0,0-.45.93l256.4,327.32a2.62,2.62,0,0,0,2,1h41.18a2.62,2.62,0,0,0,2-1l256.4-327.32A.57.57,0,0,0,583.14,119Z"/><path d="M434,2.06A2.06,2.06,0,0,0,431.9,0H404a18.7,18.7,0,0,0-5.89,1c-12.93,4.29-66.05,21.9-85.6,28.41a23,23,0,0,1-14.52,0C278.43,22.85,225.31,5.24,212.38,1a18.7,18.7,0,0,0-5.89-1H178.58a2.06,2.06,0,0,0-2.06,2.06V142.13a2.06,2.06,0,0,0,2.06,2.06h27.91a18.7,18.7,0,0,0,5.89-1c12.93-4.29,66.05-21.9,85.6-28.41a23,23,0,0,1,14.52,0c19.55,6.51,72.67,24.12,85.6,28.41a18.7,18.7,0,0,0,5.89,1h27.9a2.06,2.06,0,0,0,2.06-2.06Zm-155.68,70a5.38,5.38,0,0,1-3.63,5.08L228.94,92.91a6.85,6.85,0,0,1-9.08-6.48V57.75a6.85,6.85,0,0,1,9.08-6.48L274.66,67a5.38,5.38,0,0,1,3.63,5.08ZM390.62,86.43a6.85,6.85,0,0,1-9.08,6.48L335.83,77.18a5.38,5.38,0,0,1-3.63-5.08h0A5.38,5.38,0,0,1,335.83,67l45.71-15.73a6.85,6.85,0,0,1,9.08,6.48Z"/></g></svg>